<svg width="40" height="40" viewBox="0 0 40 40" fill="none" xmlns="http://www.w3.org/2000/svg">
<path d="M38.4022 0H11.3315C10.4642 0 9.73378 0.739884 9.73378 1.6185V9.9422C8.13602 8.3237 7.08606 7.26011 6.85781 7.0289C6.62956 6.75144 6.31 6.56647 5.89915 6.56647C5.8535 6.56647 5.8535 6.56647 5.80785 6.56647C5.7622 6.52023 5.7622 6.52023 5.71655 6.47399C5.12309 5.87283 4.34704 5.59538 3.57098 5.68786L2.70362 4.80925C2.61232 4.67052 2.38407 4.57803 2.20147 4.57803C1.88191 4.57803 1.19716 4.57803 0.603703 5.17919C0.0558985 5.7341 -0.0354024 6.3815 0.010248 6.84393C0.010248 7.0289 0.101549 7.21387 0.2385 7.3526L1.15151 8.27746C1.10586 9.01734 1.37976 9.75723 1.88191 10.3121L1.92756 10.3584C1.92756 10.4971 1.92756 10.5896 1.92756 10.6358V10.7283C1.97322 10.9595 2.06452 11.237 2.33842 11.5145L9.73378 19.0058V33.896C9.73378 34.7746 10.4642 35.5145 11.3315 35.5145H26.031L27.5831 37.0867C28.0852 37.5954 28.77 37.9191 29.4091 37.9653H29.4548C29.5004 38.0578 29.5461 38.104 29.6374 38.1503C30.0939 38.6127 30.733 38.8439 31.3264 38.8439C31.4634 38.8439 31.5547 38.8439 31.6916 38.7977C31.6916 38.7977 31.6916 38.7977 31.7373 38.7977C32.4677 39.5376 33.335 40 33.9741 40C34.2937 40 34.5676 39.9075 34.7502 39.7225C34.8872 39.5838 35.0698 39.3526 35.0698 38.9364C35.0698 38.289 34.6133 37.3642 33.8372 36.5318C33.8828 36.1618 33.8372 35.7919 33.7459 35.422H38.4022C39.2696 35.422 40 34.6821 40 33.8035V1.6185C40 0.739884 39.2696 0 38.4022 0ZM1.37976 7.21387L0.923256 6.75145C0.877606 6.56647 0.923256 6.19653 1.24281 5.87283C1.56236 5.54913 1.92756 5.54913 2.15582 5.54913L2.61232 6.01156C2.38407 6.15029 2.15582 6.28902 1.92756 6.52023C1.69931 6.7052 1.51671 6.93642 1.37976 7.21387ZM2.11017 8.9711C2.01887 8.73988 2.01887 8.46243 2.01887 8.18497C2.06452 7.81503 2.24712 7.44509 2.52102 7.12139C2.84057 6.84393 3.16013 6.65896 3.57098 6.61272C3.84488 6.56647 4.16443 6.61272 4.39269 6.7052C3.79923 6.89017 3.29708 7.16763 2.84057 7.63006C2.52102 8.04624 2.29277 8.50867 2.11017 8.9711ZM11.3315 34.1272C11.1946 34.1272 11.1033 34.0347 11.1033 33.896V20.3931L24.6615 34.1272H11.3315ZM3.34273 10.5434C3.34273 10.5434 3.34273 10.5434 3.29708 10.4509C3.29708 10.1272 3.29708 9.24855 3.93618 8.55491C4.52964 7.95376 5.30569 7.86127 5.8535 7.90751L5.89915 7.95376C5.89915 7.95376 30.9156 33.2948 31.0525 33.4335C31.4177 33.8035 31.5547 34.2659 31.6003 34.5434C31.646 34.7746 31.6003 35.052 31.5547 35.2832C31.4634 35.5607 31.3264 35.7919 31.1438 35.9769C30.9612 36.1619 30.733 36.3006 30.4591 36.4393C30.1852 36.5318 29.9113 36.578 29.5917 36.5318C29.2265 36.4855 28.8613 36.3006 28.5874 36.0231L3.34273 10.5434ZM30.733 37.8266C30.7786 37.8266 30.8243 37.8266 30.8699 37.7803H30.9156C31.3721 37.5954 31.7373 37.3179 32.0568 37.0405C32.3764 36.7168 32.6046 36.3006 32.7872 35.8381V35.7919V35.7457C32.8785 36.0231 32.9242 36.3006 32.8785 36.578C32.8329 36.9942 32.6046 37.3179 32.422 37.5029C32.1938 37.7341 31.8286 37.9191 31.509 37.9653C31.2351 37.9653 30.9612 37.9191 30.733 37.8266ZM34.1111 39.0751C34.0654 39.1214 33.9741 39.1214 33.9285 39.1214C33.6546 39.1214 33.1524 38.8902 32.6503 38.474C32.8329 38.3815 32.9698 38.2428 33.1068 38.104C33.2437 37.9653 33.3807 37.7803 33.5176 37.5954C33.9741 38.1503 34.1567 38.659 34.1567 38.9364C34.1567 39.0289 34.1567 39.0289 34.1111 39.0751ZM38.6305 33.8497C38.6305 33.9884 38.5392 34.0809 38.4022 34.0809H32.8329C32.6959 33.4335 32.3764 32.8786 31.9655 32.4624C31.9655 32.4624 29.82 30.289 26.807 27.237H32.2851C32.559 27.237 32.7416 27.052 32.7416 26.7746C32.7416 26.4971 32.559 26.3121 32.2851 26.3121H25.894C25.0267 25.4335 24.1137 24.5087 23.155 23.5376H32.2851C32.559 23.5376 32.7416 23.3526 32.7416 23.0751C32.7416 22.7977 32.559 22.6127 32.2851 22.6127H22.242C21.329 21.6879 20.416 20.763 19.503 19.8382H32.2851C32.559 19.8382 32.7416 19.6532 32.7416 19.3757C32.7416 19.0983 32.559 18.9133 32.2851 18.9133H18.59C15.8509 16.1387 13.2032 13.4566 11.1033 11.3295V1.6185C11.1033 1.47977 11.1946 1.38728 11.3315 1.38728H38.4022C38.5392 1.38728 38.6305 1.47977 38.6305 1.6185V33.8497Z" fill="#507AE4"/>
<path d="M32.2851 7.81494H17.677C17.4031 7.81494 17.2205 7.99991 17.2205 8.27737C17.2205 8.55483 17.4031 8.7398 17.677 8.7398H32.2851C32.559 8.7398 32.7416 8.55483 32.7416 8.27737C32.7416 7.99991 32.559 7.81494 32.2851 7.81494Z" fill="#507AE4"/>
<path d="M32.2851 11.5144H17.677C17.4031 11.5144 17.2205 11.6994 17.2205 11.9768C17.2205 12.2543 17.4031 12.4393 17.677 12.4393H32.2851C32.559 12.4393 32.7416 12.2543 32.7416 11.9768C32.7416 11.6994 32.559 11.5144 32.2851 11.5144Z" fill="#507AE4"/>
<path d="M32.2851 15.2139H17.677C17.4031 15.2139 17.2205 15.3988 17.2205 15.6763C17.2205 15.9538 17.4031 16.1387 17.677 16.1387H32.2851C32.559 16.1387 32.7416 15.9538 32.7416 15.6763C32.7416 15.3988 32.559 15.2139 32.2851 15.2139Z" fill="#507AE4"/>
</svg>
