<svg width="45" height="40" viewBox="0 0 45 40" fill="none" xmlns="http://www.w3.org/2000/svg">
<path d="M36.6202 40H26.3899C25.9958 39.9996 25.6763 39.6444 25.6756 39.206V28.4148H19.2124V39.206C19.212 39.6444 18.8925 39.9996 18.4981 40H8.19181C7.79778 39.9996 7.47827 39.6444 7.47792 39.206V19.4766H0.756549C0.44705 19.4778 0.172397 19.2572 0.0761351 18.9304C-0.0204802 18.6035 0.0833807 18.2449 0.332839 18.042L21.941 0.156793C22.1942 -0.0522645 22.5407 -0.0522645 22.7936 0.156793L44.4017 18.042C44.6488 18.2464 44.7502 18.6039 44.6532 18.9288C44.5563 19.2541 44.283 19.4731 43.9749 19.4731H37.3377L37.3374 39.2055C37.3374 39.4168 37.2614 39.6193 37.1265 39.7682C36.992 39.9174 36.8091 40.0006 36.6193 39.9995L36.6202 40ZM27.1045 38.4123L35.9061 38.4119V18.6835C35.9061 18.2451 36.2256 17.8895 36.6203 17.8895H41.8211L22.37 1.7847L2.91442 17.8895H8.19249H8.19214C8.58652 17.8895 8.90637 18.2451 8.90637 18.6835V38.4119H17.7844V27.6207C17.7841 27.4101 17.8593 27.208 17.9932 27.0591C18.127 26.9103 18.3089 26.8267 18.4983 26.8267H26.39C26.5795 26.8267 26.7613 26.9103 26.8952 27.0591C27.0294 27.208 27.1046 27.4101 27.1043 27.6207L27.1045 38.4123Z" fill="#507AE4"/>
</svg>
