<svg width="40" height="40" viewBox="0 0 40 40" fill="none" xmlns="http://www.w3.org/2000/svg">
<path d="M27.223 40C27.1083 40.0003 26.9935 39.9862 26.8823 39.9579C22.0467 38.7198 19.7742 35.1632 18.7887 32.8879L6.67335 32.8876C4.90423 32.886 3.20808 32.1711 1.9569 30.9005C0.705723 29.6299 0.00194169 27.907 0 26.11V6.77795C0.00189622 4.9806 0.705699 3.2577 1.9569 1.98711C3.20808 0.716527 4.90423 0.00197232 6.67335 0H33.0148C34.7839 0.00192605 36.4801 0.716511 37.7313 1.98711C38.9824 3.2577 39.6862 4.9806 39.6882 6.77795V26.11C39.6863 27.907 38.9825 29.6299 37.7313 30.9005C36.4801 32.1711 34.7839 32.8859 33.0148 32.8876H28.8186C27.6044 34.3938 27.4881 36.0611 28.4754 37.8489C28.6119 38.0938 28.6735 38.3747 28.6523 38.6553C28.6312 38.9358 28.5285 39.2039 28.3569 39.4247C28.0876 39.7852 27.6689 39.9981 27.2232 40L27.223 40ZM6.67261 1.32857C5.25016 1.33018 3.88677 1.90479 2.88089 2.92623C1.87526 3.94806 1.30926 5.33287 1.3074 6.77776V26.1098C1.30929 27.5543 1.8753 28.9396 2.88089 29.961C3.88685 30.9825 5.25016 31.5571 6.67261 31.5586H19.2224C19.4898 31.5589 19.7299 31.7239 19.8295 31.9759C20.6167 33.9723 22.6213 37.4961 27.2009 38.6685V38.6688C27.247 38.6778 27.2938 38.6576 27.3188 38.6172C27.3491 38.5854 27.3561 38.5375 27.3365 38.4984C26.0344 36.1402 26.2829 33.7538 28.0352 31.776C28.1591 31.6363 28.3354 31.5567 28.5206 31.5564H33.0139C34.4364 31.5548 35.7998 30.9802 36.8057 29.9584C37.8113 28.9369 38.3773 27.5521 38.3792 26.1072V6.77767C38.3773 5.33278 37.8113 3.94789 36.8057 2.92614C35.7997 1.90465 34.4364 1.33004 33.0139 1.32848L6.67261 1.32857Z" fill="#507AE4"/>
<path d="M28.5797 10.8868H9.19514C8.83392 10.8868 8.54095 10.5895 8.54095 10.2226C8.54095 9.85536 8.83392 9.55811 9.19514 9.55811H28.5797C28.9409 9.55811 29.2339 9.85537 29.2339 10.2226C29.2339 10.5895 28.9409 10.8868 28.5797 10.8868Z" fill="#507AE4"/>
<path d="M28.5797 16.004H9.19514C8.83392 16.004 8.54095 15.7064 8.54095 15.3395C8.54095 14.9726 8.83392 14.6753 9.19514 14.6753H28.5797C28.9409 14.6753 29.2339 14.9726 29.2339 15.3395C29.2339 15.7064 28.9409 16.004 28.5797 16.004Z" fill="#507AE4"/>
<path d="M28.5797 21.1215H9.19514C8.83392 21.1215 8.54095 20.8239 8.54095 20.457C8.54095 20.0901 8.83392 19.7925 9.19514 19.7925H28.5797C28.9409 19.7925 29.2339 20.0901 29.2339 20.457C29.2339 20.8239 28.9409 21.1215 28.5797 21.1215Z" fill="#507AE4"/>
</svg>
