<svg width="18" height="10" viewBox="0 0 18 10" fill="none" xmlns="http://www.w3.org/2000/svg">
<path d="M17.7898 4.61466L12.2618 0.13817C12.0082 -0.0672549 11.6249 -0.0402842 11.4065 0.196863C11.1874 0.434538 11.2153 0.793301 11.4689 0.998746L15.7063 4.42956H0.606419C0.271619 4.42956 0 4.6839 0 4.99798C0 5.31206 0.271619 5.56639 0.606419 5.56639H15.8586L13.4434 7.587L11.5567 8.98556C11.2944 9.18041 11.2492 9.53785 11.4571 9.78427C11.5767 9.92598 11.7544 10 11.9335 10C12.0652 10 12.1981 9.96008 12.3095 9.87733L14.2233 8.45684L17.7969 5.46859C17.9272 5.35993 18.0011 5.20368 18 5.04003C17.9983 4.87638 17.9224 4.72147 17.7898 4.61466Z" fill="white"/>
</svg>
