<svg width="40" height="40" viewBox="0 0 40 40" fill="none" xmlns="http://www.w3.org/2000/svg">
<path d="M29.0409 40H23.5333C22.9646 40.0023 22.4123 39.7974 21.9675 39.4192C21.5227 39.041 21.2126 38.5124 21.0877 37.9202L20.8053 36.6036C20.014 36.7072 19.2179 36.7622 18.4205 36.7687H18.2828H18.2831C17.4396 36.7677 16.5971 36.712 15.76 36.6023L15.4776 37.9182V37.9179C15.353 38.5097 15.0429 39.0387 14.5981 39.4169C14.1536 39.7951 13.6013 40 13.0326 39.9977H7.52539C6.78784 39.9974 6.0878 39.6511 5.61131 39.0508C5.13476 38.4502 4.92962 37.6567 5.05051 36.8805L5.79386 32.1217C2.12255 28.8787 0.0241089 24.3338 0.0241089 19.5837C0.0329619 16.985 0.650538 14.4299 1.82065 12.1512C1.13683 11.4847 0.651429 10.7336 0.373601 9.9209C-0.15331 8.38217 0.0643564 6.75771 1.01957 5.09232V5.09199C1.24547 4.69818 1.60876 4.41643 2.02944 4.30829C2.45011 4.20047 2.89371 4.27507 3.26274 4.51611C3.64098 4.76367 4.22377 5.38058 3.87147 6.73694C3.61657 7.71899 3.77409 8.2565 3.93405 8.36465C4.03815 8.43598 4.34007 8.40113 4.77176 8.04739C4.79954 8.00342 4.8319 7.96335 4.86853 7.92752C6.59521 6.1774 8.62526 4.80311 10.845 3.8826C13.2142 2.89105 15.738 2.38657 18.2831 2.39532H18.3811H18.4199C19.9554 2.40542 21.4855 2.59825 22.981 2.97056C26.1239 -0.0622969 29.072 -0.242412 31.0095 0.154925V0.154599C31.8964 0.332771 32.6547 0.942535 33.0594 1.8034C33.4639 2.66428 33.4688 3.67735 33.0722 4.54248L31.5742 7.79848C33.5851 9.80918 35.0538 12.2401 35.8484 14.886L37.0646 15.1463V15.1459C37.9215 15.3306 38.6747 15.87 39.1591 16.6462C39.6436 17.4228 39.8194 18.3722 39.6485 19.2869L38.4903 25.4719C38.3163 26.3852 37.8104 27.1878 37.0832 27.7044C36.3564 28.221 35.4671 28.4096 34.6102 28.2288L34.1293 28.1255L34.129 28.1259C33.2068 29.632 32.0745 30.9796 30.7716 32.1216L31.5149 36.8805C31.6358 37.6567 31.4307 38.4501 30.9541 39.0508C30.4776 39.6511 29.7776 39.9974 29.0401 39.9976L29.0409 40ZM21.2965 35.1786C21.5911 35.1786 21.8463 35.3958 21.912 35.702L22.3238 37.6199C22.3858 37.9134 22.5399 38.1756 22.7603 38.3632C22.9811 38.5505 23.2549 38.6521 23.537 38.6508H29.0445C29.4099 38.6499 29.7567 38.4775 29.9924 38.1795C30.2284 37.8815 30.3294 37.488 30.2687 37.1033L29.4948 32.15L29.4951 32.1503C29.4881 32.1076 29.4793 32.0656 29.4683 32.0243C29.4032 31.7647 29.4893 31.4888 29.6868 31.3223C31.1158 30.1279 32.3348 28.6719 33.287 27.0227C33.4252 26.781 33.6902 26.6569 33.9506 26.7126L34.8582 26.9071V26.9068C35.3866 27.0175 35.9346 26.9009 36.3828 26.5823C36.831 26.2638 37.1432 25.7693 37.251 25.2065L38.4128 19.0254C38.5182 18.4616 38.4098 17.876 38.1112 17.3975C37.8124 16.919 37.348 16.5861 36.8199 16.4724L35.2343 16.133V16.1327C35.0029 16.0828 34.8167 15.8991 34.752 15.6568C34.0123 12.9513 32.5011 10.4634 30.3825 8.45976C30.1694 8.25878 30.1087 7.93045 30.2339 7.65781L31.9413 3.95003C32.1651 3.4673 32.1636 2.90053 31.937 2.41914C31.7084 1.93054 31.2783 1.58394 30.7752 1.48329C27.6903 0.848768 25.1688 2.61518 23.5966 4.20544C23.4391 4.3644 23.2165 4.42629 23.0065 4.36962C21.5039 3.96637 19.961 3.7579 18.4117 3.74845H18.3217H18.2823C15.8956 3.73901 13.5285 4.21099 11.306 5.13967C9.29732 5.97289 7.45467 7.20416 5.87516 8.76832C5.83822 8.84031 5.78937 8.90415 5.73076 8.95724C4.46721 10.1113 3.57949 9.72498 3.25618 9.50544C2.50306 8.99535 2.27866 7.82629 2.65417 6.37978C2.72255 6.11561 2.76926 5.77783 2.60288 5.66611V5.66578C2.51985 5.61139 2.41971 5.59445 2.32477 5.61888C2.23014 5.64331 2.14832 5.70683 2.09734 5.79575C1.35399 7.0925 1.17265 8.32436 1.56066 9.45759C1.81037 10.1882 2.30401 10.8647 3.01833 11.469V11.4693C3.26683 11.6781 3.33246 12.051 3.17158 12.3416C1.9221 14.6005 1.28798 17.037 1.28798 19.5839C1.28645 21.8536 1.80085 24.09 2.78723 26.101C3.75342 28.0919 5.13021 29.8495 6.87548 31.3238V31.3241C7.07514 31.4899 7.16275 31.7665 7.09864 32.0277C7.0846 32.0831 7.07636 32.1205 7.07117 32.1537L6.29729 37.1035C6.23746 37.4888 6.33942 37.8823 6.5757 38.1803C6.81229 38.4781 7.1594 38.65 7.5254 38.6504H13.033H13.0326C13.3147 38.6513 13.5889 38.55 13.8093 38.3624C14.03 38.1748 14.1839 37.9126 14.2458 37.6191L14.6576 35.7012C14.7312 35.3576 15.0408 35.1322 15.3677 35.1849C16.3324 35.3419 17.3071 35.4217 18.2831 35.423H18.4101C19.3433 35.4146 20.2751 35.3351 21.1976 35.1849C21.2306 35.1804 21.2636 35.1781 21.2966 35.1787L21.2965 35.1786ZM27.8649 18.1043C27.0547 18.1043 26.2777 17.761 25.705 17.1496C25.132 16.5386 24.8103 15.7096 24.8103 14.8451C24.8103 13.981 25.1321 13.1519 25.705 12.5405C26.2777 11.9295 27.0547 11.5862 27.8649 11.5862C28.6748 11.5862 29.4518 11.9295 30.0248 12.5405C30.5975 13.1519 30.9192 13.9809 30.9192 14.8451C30.9186 15.7099 30.5959 16.5392 30.0223 17.1503C29.449 17.7614 28.6714 18.1043 27.8612 18.1043H27.8649ZM27.8649 12.9354C27.3899 12.9354 26.9344 13.1367 26.5986 13.495C26.2628 13.8536 26.0742 14.3396 26.0742 14.8464C26.0742 15.3529 26.2628 15.8392 26.5989 16.1972C26.9347 16.5555 27.3902 16.7568 27.8652 16.7568C28.3402 16.7565 28.7957 16.5552 29.1315 16.1965C29.4673 15.8382 29.6557 15.3519 29.6557 14.8451C29.6551 14.3379 29.4658 13.8516 29.1294 13.4936C28.7926 13.1353 28.3365 12.9344 27.8612 12.9353L27.8649 12.9354Z" fill="#507AE4"/>
</svg>
