<svg width="40" height="40" viewBox="0 0 40 40" fill="none" xmlns="http://www.w3.org/2000/svg">
<path d="M29.2479 40C27.8579 39.9958 26.4742 39.8443 25.1308 39.5494C19.0893 38.2471 13.2168 34.2378 7.67445 27.6326C7.63924 27.5903 7.61029 27.5452 7.5876 27.4975C7.54143 27.4637 7.50075 27.425 7.46593 27.3831C1.92356 20.7782 -0.553178 14.8342 0.103213 9.71708C0.762018 4.56953 4.37647 1.99564 5.90067 1.12752C7.60013 0.159802 9.04412 -0.179275 10.3159 0.0882569C12.3518 0.519881 13.4594 2.3598 14.7503 4.4899C14.8575 4.66783 14.9671 4.84802 15.0789 5.0308C16.2135 6.89007 16.406 8.24877 15.7037 9.43245C15.0234 10.5784 13.5814 11.4246 11.7677 12.4152C11.2544 12.6937 10.9406 13.1027 10.8092 13.6649C10.5569 14.738 10.9786 16.3336 12.0286 18.2912C13.1252 20.3319 14.5751 22.1687 15.3406 23.079C16.1066 23.9896 17.6801 25.7581 19.6104 27.3246C21.4573 28.8245 23.1247 29.7148 24.4314 29.8992C25.1164 29.9959 25.6915 29.8992 26.1891 29.6026C27.9516 28.5524 29.4213 27.7401 30.9627 27.6208C32.5553 27.4977 34.0291 28.1263 35.7398 29.6578C35.9077 29.808 36.0736 29.9559 36.2379 30.1019C38.2013 31.8468 39.8969 33.3531 39.6673 35.0751C39.5245 36.1505 38.629 37.1442 36.9303 38.112C35.7809 38.7689 33.105 39.9996 29.248 39.9996L29.2479 40ZM8.88517 26.7596C8.93056 26.7941 8.97163 26.8324 9.00684 26.874C11.8502 30.2631 14.8129 32.9705 17.8119 34.9194C20.3689 36.5812 22.9693 37.7042 25.5404 38.2583C30.9701 39.4288 34.671 37.7796 36.0102 37.0166C37.3001 36.2826 37.9698 35.6038 38.0582 34.9326C38.2069 33.8164 36.7437 32.5167 35.0498 31.0119C34.8839 30.8643 34.7168 30.715 34.5478 30.5639C31.8113 28.1105 30.5042 28.6801 27.1433 30.6864C26.2861 31.1973 25.2826 31.3755 24.1615 31.2176C19.9927 30.628 15.3395 25.4218 14.0131 23.8394C12.6869 22.257 8.41948 16.8326 9.22349 13.4105C9.43436 12.4908 9.99614 11.7846 10.8744 11.3017C14.3409 9.41788 15.4469 8.61165 13.6313 5.63382C13.519 5.44943 13.4094 5.26731 13.3007 5.08455C12.1873 3.25102 11.2347 1.66382 9.91235 1.38366C9.12171 1.21637 8.11084 1.49197 6.82099 2.22661C5.48186 2.99348 2.30206 5.26023 1.70857 9.85811C1.42963 12.0356 1.78681 14.4373 2.76997 16.9951C3.92371 19.9952 5.94977 23.2351 8.79317 26.6245V26.6248C8.82955 26.667 8.86006 26.7121 8.88471 26.7599L8.88517 26.7596Z" fill="#507AE4"/>
</svg>
