<svg width="40" height="40" viewBox="0 0 40 40" fill="none" xmlns="http://www.w3.org/2000/svg">
<path d="M19.8754 28.7858C16.9338 28.7908 14.1864 27.3075 12.5607 24.8369C10.935 22.3664 10.6483 19.2385 11.7971 16.5097C12.9459 13.7808 15.3771 11.815 18.2697 11.2764C21.1624 10.7379 24.1298 11.6984 26.1704 13.8335C28.2108 15.9686 29.0519 18.9935 28.4092 21.8861C27.7668 24.779 25.7265 27.1537 22.9774 28.2082C21.9868 28.5896 20.9354 28.7852 19.8752 28.7858L19.8754 28.7858ZM19.8822 12.4523C17.3968 12.4467 15.0712 13.686 13.676 15.7588C12.281 17.8315 11.9989 20.4673 12.9228 22.7924C13.8467 25.1176 15.8564 26.8282 18.2857 27.3575C20.7147 27.8867 23.2461 27.1655 25.0408 25.4329C26.8354 23.7 27.6587 21.1823 27.2379 18.714C26.817 16.2452 25.2073 14.1486 22.9416 13.119C21.9802 12.6812 20.9372 12.4539 19.8822 12.4523Z" fill="#507AE4"/>
<path d="M19.8833 35.6746C19.0603 35.675 18.2388 35.6089 17.4263 35.4768C17.2559 35.4539 17.102 35.3627 16.9996 35.2238C16.8971 35.0849 16.8547 34.9104 16.8818 34.7392C16.9091 34.5684 17.0036 34.4158 17.1442 34.3163C17.2845 34.2164 17.4589 34.1783 17.6278 34.2102C18.8167 34.4025 20.0249 34.4422 21.2238 34.3278C21.5687 34.3029 21.8705 34.5606 21.9031 34.9076C21.9354 35.2548 21.6871 35.5646 21.3435 35.6052C20.858 35.6517 20.3712 35.6746 19.8833 35.6746Z" fill="#507AE4"/>
<path d="M28.6298 32.822C28.3498 32.822 28.1027 32.6381 28.0206 32.3684C27.9384 32.0989 28.0406 31.8066 28.2723 31.6487C29.2473 30.9371 30.1284 30.1034 30.8945 29.1676C31.1185 28.8945 31.52 28.8557 31.7913 29.0817C32.0624 29.3075 32.1006 29.7121 31.8766 29.9853C31.037 31.0113 30.0702 31.9247 29.0005 32.7032C28.8916 32.7829 28.7605 32.8254 28.6261 32.8248L28.6298 32.822Z" fill="#507AE4"/>
<path d="M31.9961 11.8114C31.7844 11.8114 31.5863 11.7054 31.4681 11.5283C30.7537 10.5315 29.9147 9.63144 28.9718 8.85126C28.8367 8.7446 28.7496 8.58771 28.7309 8.41593C28.7121 8.24385 28.7629 8.07146 28.8718 7.93783C28.9807 7.80419 29.1388 7.72078 29.3096 7.7059C29.4807 7.69133 29.6505 7.74683 29.7803 7.86C30.8131 8.71487 31.7318 9.70142 32.5133 10.7944C32.5441 10.8394 32.5693 10.8878 32.588 10.9386C32.6637 11.1361 32.6379 11.3584 32.5191 11.5327C32.4004 11.7072 32.2038 11.8114 31.9939 11.8114L31.9961 11.8114Z" fill="#507AE4"/>
<path d="M8.33599 11.0631C8.08986 11.0628 7.86588 10.9195 7.76066 10.6957C7.65544 10.4715 7.68743 10.2064 7.84281 10.0145C8.68517 8.97821 9.65677 8.05579 10.7333 7.26982C11.0213 7.06611 11.4185 7.13649 11.6206 7.42671C11.8228 7.71693 11.7529 8.11721 11.4652 8.32095C10.4832 9.03905 9.59678 9.88147 8.82798 10.8275C8.70769 10.9766 8.52674 11.0631 8.33599 11.0631Z" fill="#507AE4"/>
<path d="M22.2517 5.75437C22.2175 5.75468 22.1831 5.75189 22.1492 5.7463C20.9423 5.5488 19.7156 5.5088 18.4984 5.62693C18.1769 5.66693 17.8766 5.45702 17.8013 5.13921C17.7259 4.82171 17.8991 4.49739 18.204 4.38639C18.2541 4.3684 18.3061 4.35631 18.3591 4.35104C19.6897 4.21895 21.0318 4.26112 22.3513 4.4763C22.6787 4.52994 22.9104 4.8276 22.8842 5.1606C22.8581 5.49361 22.5827 5.75065 22.251 5.75157L22.2517 5.75437Z" fill="#507AE4"/>
<path d="M34.6267 23.0271C34.592 23.0271 34.5575 23.0243 34.5234 23.0187C34.1766 22.9611 33.9422 22.6312 33.9988 22.282C34.1951 21.0691 34.2351 19.836 34.1179 18.6128C34.1015 18.4432 34.1529 18.2742 34.2603 18.1427C34.3677 18.0113 34.5224 17.9282 34.6907 17.9117C35.0408 17.8776 35.3522 18.1359 35.3863 18.4887C35.5131 19.823 35.4688 21.1676 35.2544 22.4904C35.2036 22.7998 34.9381 23.0268 34.6267 23.0271Z" fill="#507AE4"/>
<path d="M10.3681 32.2291C10.2204 32.2291 10.0773 32.1773 9.96348 32.0825C8.95123 31.2422 8.04885 30.2751 7.27848 29.2054C7.07173 28.9183 7.1348 28.5168 7.4194 28.3084C7.70399 28.0997 8.10241 28.1633 8.30948 28.4504C9.01619 29.433 9.84408 30.3206 10.7736 31.0927C10.9809 31.2651 11.0588 31.5501 10.9677 31.8049C10.8769 32.0598 10.6369 32.23 10.368 32.2297L10.3681 32.2291Z" fill="#507AE4"/>
<path d="M5.00748 22.0731C4.68013 22.0725 4.40661 21.8222 4.37523 21.4939C4.24632 20.1709 4.28632 18.8366 4.4943 17.5242C4.54937 17.1729 4.87673 16.9332 5.2253 16.9887C5.57389 17.0445 5.81171 17.3744 5.75664 17.7257C5.56588 18.93 5.52897 20.1541 5.6465 21.3677C5.66311 21.5373 5.61235 21.7063 5.50528 21.838C5.39821 21.9698 5.24376 22.0532 5.07547 22.07C5.05024 22.0715 5.02932 22.0731 5.00748 22.0731Z" fill="#507AE4"/>
<path d="M11.1084 8.43086C10.8453 8.43117 10.6094 8.26808 10.5143 8.02096C10.4854 7.9453 10.4706 7.865 10.4709 7.78407L10.2829 2.38037C10.2672 1.919 10.5444 1.49859 10.9727 1.33484L14.2742 0.0700722C14.7022 -0.0933295 15.1858 0.0353457 15.4781 0.390367L18.8975 4.56471C18.9516 4.62548 18.9935 4.6968 19.0209 4.77369C19.1418 5.10607 18.9723 5.47411 18.6427 5.59593C18.3883 5.69019 18.1025 5.61175 17.9308 5.40029L14.5896 1.32334L11.5609 2.48016L11.7452 7.76512C11.7508 7.93906 11.6862 8.10773 11.5662 8.23299C11.4462 8.35794 11.281 8.42895 11.1084 8.42957L11.1084 8.43086Z" fill="#507AE4"/>
<path d="M5.12405 18.2679C4.96284 18.2679 4.80747 18.2062 4.68964 18.0948L0.726649 14.3704V14.3707C0.392218 14.056 0.292844 13.5624 0.479289 13.1414L1.92961 9.89507H1.92992C2.11698 9.47339 2.55078 9.21945 3.00707 9.26472L8.401 9.78251C8.75174 9.81724 9.00833 10.1323 8.97387 10.4857C8.9391 10.8395 8.62683 11.0978 8.27578 11.0631L3.03165 10.5586L1.70191 13.5317L5.55849 17.1557H5.5588C5.75017 17.3355 5.81324 17.6152 5.71724 17.8605C5.62125 18.106 5.38589 18.2673 5.12407 18.2669L5.12405 18.2679Z" fill="#507AE4"/>
<path d="M2.34851 29.6621C1.90332 29.6624 1.50426 29.3852 1.3461 28.966L0.0933157 25.6387C-0.0682094 25.2074 0.0591654 24.7207 0.411136 24.4261L4.60647 20.9374C4.73661 20.8288 4.90429 20.7771 5.07258 20.7932C5.24057 20.8093 5.39563 20.8921 5.503 21.0235C5.72729 21.2967 5.68883 21.7013 5.41778 21.9271L1.33697 25.321L2.4861 28.3735L7.773 28.1872H7.79608L7.79638 28.1869C8.14804 28.1807 8.43786 28.4631 8.44402 28.8175C8.44987 29.1719 8.16989 29.4643 7.81823 29.4702L2.38578 29.6612L2.34851 29.6621Z" fill="#507AE4"/>
<path d="M13.5004 39.6349C13.349 39.6349 13.1995 39.6024 13.0614 39.5397L9.84017 38.0803C9.42205 37.8908 9.17038 37.4536 9.21469 36.9938L9.73371 31.5231C9.77832 31.1795 10.0854 30.9337 10.4275 30.9675C10.7696 31.0013 11.0231 31.3026 11.0007 31.6483L10.4964 36.9696L13.4503 38.309L17.0604 34.4066V34.4063C17.3004 34.1471 17.7035 34.1332 17.9607 34.375C18.2179 34.6169 18.2317 35.023 17.9918 35.2823L14.2835 39.292C14.081 39.5109 13.7973 39.6349 13.5004 39.6349Z" fill="#507AE4"/>
<path d="M25.0855 40.0001C24.7665 39.9998 24.4641 39.8556 24.2613 39.6076L20.7936 35.3734C20.6792 35.2432 20.6223 35.0717 20.6358 34.8984C20.6494 34.7251 20.7321 34.5648 20.8653 34.4538C20.9982 34.3431 21.1702 34.2916 21.3416 34.3108C21.5133 34.3304 21.6696 34.419 21.7748 34.5567L25.1499 38.6759L28.1779 37.5178L27.993 32.2027C27.9825 32.0273 28.0438 31.8555 28.1622 31.7268C28.281 31.5981 28.4465 31.524 28.6206 31.5215C28.7948 31.5191 28.9624 31.5888 29.0846 31.7141C29.2064 31.8397 29.2722 32.0099 29.2664 32.1854L29.4553 37.6213V37.621C29.4716 38.083 29.1941 38.5037 28.7652 38.6675L25.4643 39.9292H25.4646C25.3434 39.976 25.2151 39.9998 25.0855 40.0001Z" fill="#507AE4"/>
<path d="M36.8344 30.7409C36.7999 30.7409 36.7661 30.7409 36.7316 30.7363L31.3272 30.216V30.2163C30.9771 30.1828 30.7199 29.8694 30.7534 29.5165C30.7867 29.1634 31.0977 28.9045 31.4478 28.9382L36.7076 29.4449L38.0367 26.4649L34.1913 22.8524V22.8521C34.0676 22.7361 33.995 22.5752 33.9888 22.4053C33.983 22.2351 34.0442 22.0695 34.1593 21.9451C34.3992 21.6856 34.8023 21.6714 35.0595 21.9129L39.0121 25.6258C39.3478 25.9409 39.4465 26.4363 39.2579 26.8574L37.8097 30.1037C37.6371 30.491 37.2553 30.7403 36.8344 30.7409Z" fill="#507AE4"/>
<path d="M34.7496 19.1901C34.4829 19.1886 34.2457 19.0193 34.1549 18.7666C34.0645 18.5139 34.1395 18.2311 34.3435 18.0578L38.3995 14.6822L37.2509 11.6306L32.0157 11.8157L32.016 11.8154C31.6644 11.8204 31.3752 11.537 31.3705 11.1826C31.3656 10.8282 31.6471 10.5368 31.9988 10.5321L37.3522 10.3427C37.8103 10.3272 38.2271 10.6065 38.3906 11.0378L39.6425 14.3644C39.8055 14.7966 39.6766 15.2853 39.3225 15.5793L35.158 19.0433C35.0432 19.1388 34.8986 19.1912 34.7497 19.1902L34.7496 19.1901Z" fill="#507AE4"/>
<path d="M29.3764 8.99776H29.3158C28.9657 8.96396 28.7088 8.6508 28.742 8.29796L29.241 3.03348L26.2878 1.69093L22.7164 5.55118C22.6041 5.68667 22.4413 5.76977 22.2666 5.78031C22.0915 5.79116 21.9201 5.72853 21.7922 5.60792C21.6645 5.487 21.5916 5.31863 21.5909 5.1419C21.5903 4.96547 21.662 4.79649 21.7891 4.67464L25.4598 0.708022C25.7721 0.370678 26.2624 0.27053 26.6803 0.458737L29.9015 1.92035V1.92066C30.3202 2.10949 30.5722 2.54698 30.5279 3.00683L30.0101 8.42014C29.9772 8.74818 29.7033 8.99747 29.3763 8.99778L29.3764 8.99776Z" fill="#507AE4"/>
</svg>
