<svg width="45" height="40" viewBox="0 0 45 40" fill="none" xmlns="http://www.w3.org/2000/svg">
<path d="M3.58532 39.9999C2.48024 39.9967 1.43894 39.3359 0.768468 38.2111C0.0983994 37.0867 -0.125076 35.6268 0.164564 34.2615C0.454556 32.8966 1.22388 31.7817 2.24689 31.2457L22.0142 17.5449C22.3693 17.2998 22.8121 17.4692 23.0035 17.9237C23.1949 18.3782 23.0626 18.9449 22.7075 19.1899L2.34282 33.2989C1.87053 33.7449 1.56612 34.4237 1.50348 35.1702C1.44083 35.9171 1.62595 36.663 2.01342 37.2265C2.40124 37.7905 2.95588 38.1202 3.54257 38.1351C3.61542 38.1045 3.69178 38.0887 3.76886 38.0892H22.4326C22.8348 38.0892 23.1607 38.5067 23.1607 39.0216C23.1607 39.5365 22.8348 39.954 22.4326 39.954H4.0941C3.92517 39.9847 3.75484 40 3.58415 40L3.58532 39.9999Z" fill="#507AE4"/>
<path d="M41.138 40C40.9684 40 40.7988 39.9847 40.6306 39.954H22.2921H22.2925C21.8898 39.954 21.564 39.5365 21.564 39.0216C21.564 38.5067 21.8899 38.0891 22.2925 38.0891H40.9571C41.0338 38.0887 41.1105 38.1045 41.1833 38.1351C41.77 38.1202 42.3246 37.7905 42.7121 37.2265C43.1 36.663 43.2851 35.9171 43.2224 35.1702C43.1598 34.4238 42.8554 33.745 42.3831 33.2989L22.0157 19.1899C21.6606 18.9448 21.5283 18.3782 21.7197 17.9237C21.9112 17.4693 22.3539 17.2998 22.709 17.5449L42.4763 31.2457C43.5015 31.779 44.2739 32.8939 44.5647 34.2607C44.8557 35.6274 44.6322 37.0895 43.9601 38.2152C43.2882 39.3405 42.2445 40.0003 41.138 40Z" fill="#507AE4"/>
<path d="M22.3769 19.3005C21.9747 19.3005 21.6484 18.8829 21.6484 18.368V13.827C21.6484 13.3121 21.9747 12.8945 22.3769 12.8945C22.7792 12.8945 23.1051 13.3121 23.1051 13.827V18.369C23.1051 18.6163 23.0283 18.8532 22.8918 19.028C22.7552 19.2028 22.5698 19.3005 22.3769 19.3005Z" fill="#507AE4"/>
<path d="M22.4338 14.7593C22.0315 14.7593 21.7053 14.3417 21.7053 13.8268C21.7053 13.312 22.0315 12.8944 22.4338 12.8944C23.5771 12.8953 24.6745 12.3147 25.4836 11.28C26.2927 10.2453 26.7473 8.84159 26.7473 7.37764C26.7477 5.91369 26.2937 4.51005 25.485 3.47439C24.6766 2.43923 23.5797 1.85764 22.4358 1.85764C21.2925 1.85809 20.1955 2.43964 19.3871 3.4752C18.5784 4.51035 18.1243 5.91438 18.1251 7.37845C18.1251 7.89331 17.7988 8.31089 17.3966 8.31089C16.9943 8.31089 16.6681 7.89331 16.6681 7.37845C16.6684 5.42117 17.2759 3.54415 18.3573 2.16081C19.4388 0.777006 20.9053 -0.000461063 22.4341 2.05134e-07C23.9632 2.05134e-07 25.4297 0.777491 26.5108 2.16173C27.5919 3.54554 28.1993 5.42255 28.1989 7.37983C28.1989 9.33711 27.5915 11.2141 26.5104 12.5979C25.4289 13.9817 23.9628 14.7592 22.4337 14.7592L22.4338 14.7593Z" fill="#507AE4"/>
</svg>
